REM DIRINDEX 1\2\4,1\2\5,1\2\6,1\3\7,1\3\8,1\3\9,1\3\10
REM DIRNAME cjc057,folder01,folder02,folder03,folder04,folder05,folder06,folder07,folder08,folder09
TITLE ""
FILE "b_116.mp3" MP3
  TRACK 01 AUDIO
    TITLE "0:"
    INDEX 01 00:00:00
  TRACK 02 AUDIO
    TITLE "7:cjc057_07335"
    INDEX 01 00:00:15
  TRACK 03 AUDIO
    TITLE "0:"
    INDEX 01 00:01:34
  TRACK 04 AUDIO
    TITLE "8:cjc057_07336"
    INDEX 01 00:01:64
  TRACK 05 AUDIO
    TITLE "0:"
    INDEX 01 00:04:05
  TRACK 06 AUDIO
    TITLE "7:cjc057_07337"
    INDEX 01 00:05:09
  TRACK 07 AUDIO
    TITLE "0:"
    INDEX 01 00:06:33
  TRACK 08 AUDIO
    TITLE "8:cjc057_07338"
    INDEX 01 00:06:63
  TRACK 09 AUDIO
    TITLE "0:"
    INDEX 01 00:09:47
  TRACK 10 AUDIO
    TITLE "7:cjc057_07339"
    INDEX 01 00:10:53
  TRACK 11 AUDIO
    TITLE "0:"
    INDEX 01 00:12:01
  TRACK 12 AUDIO
    TITLE "8:cjc057_07340"
    INDEX 01 00:12:30
  TRACK 13 AUDIO
    TITLE "0:"
    INDEX 01 00:15:19
  TRACK 14 AUDIO
    TITLE "7:cjc057_07341"
    INDEX 01 00:16:20
  TRACK 15 AUDIO
    TITLE "0:"
    INDEX 01 00:17:70
  TRACK 16 AUDIO
    TITLE "8:cjc057_07342"
    INDEX 01 00:18:23
  TRACK 17 AUDIO
    TITLE "0:"
    INDEX 01 00:20:49
  TRACK 18 AUDIO
    TITLE "7:cjc057_07343"
    INDEX 01 00:21:53
  TRACK 19 AUDIO
    TITLE "0:"
    INDEX 01 00:22:72
  TRACK 20 AUDIO
    TITLE "8:cjc057_07344"
    INDEX 01 00:23:28
  TRACK 21 AUDIO
    TITLE "0:"
    INDEX 01 00:25:46
  TRACK 22 AUDIO
    TITLE "7:cjc057_07345"
    INDEX 01 00:26:52
  TRACK 23 AUDIO
    TITLE "0:"
    INDEX 01 00:27:69
  TRACK 24 AUDIO
    TITLE "8:cjc057_07346"
    INDEX 01 00:28:25
  TRACK 25 AUDIO
    TITLE "0:"
    INDEX 01 00:33:01
  TRACK 26 AUDIO
    TITLE "7:cjc057_07347"
    INDEX 01 00:34:00
  TRACK 27 AUDIO
    TITLE "0:"
    INDEX 01 00:35:29
  TRACK 28 AUDIO
    TITLE "8:cjc057_07348"
    INDEX 01 00:35:59
  TRACK 29 AUDIO
    TITLE "0:"
    INDEX 01 00:38:67
  TRACK 30 AUDIO
    TITLE "7:cjc057_07349"
    INDEX 01 00:39:70
  TRACK 31 AUDIO
    TITLE "0:"
    INDEX 01 00:41:06
  TRACK 32 AUDIO
    TITLE "8:cjc057_07350"
    INDEX 01 00:41:36
  TRACK 33 AUDIO
    TITLE "0:"
    INDEX 01 00:44:22
  TRACK 34 AUDIO
    TITLE "7:cjc057_07351"
    INDEX 01 00:45:26
  TRACK 35 AUDIO
    TITLE "0:"
    INDEX 01 00:46:33
  TRACK 36 AUDIO
    TITLE "8:cjc057_07352"
    INDEX 01 00:46:64
  TRACK 37 AUDIO
    TITLE "0:"
    INDEX 01 00:48:00
  TRACK 38 AUDIO
    TITLE "7:cjc057_07353"
    INDEX 01 00:49:04
  TRACK 39 AUDIO
    TITLE "0:"
    INDEX 01 00:50:52
  TRACK 40 AUDIO
    TITLE "8:cjc057_07354"
    INDEX 01 00:51:05
  TRACK 41 AUDIO
    TITLE "0:"
    INDEX 01 00:54:52
  TRACK 42 AUDIO
    TITLE "7:cjc057_07355"
    INDEX 01 00:55:53
  TRACK 43 AUDIO
    TITLE "0:"
    INDEX 01 00:57:07
  TRACK 44 AUDIO
    TITLE "8:cjc057_07356"
    INDEX 01 00:57:35
  TRACK 45 AUDIO
    TITLE "0:"
    INDEX 01 00:59:61
  TRACK 46 AUDIO
    TITLE "7:cjc057_07357"
    INDEX 01 01:00:62
  TRACK 47 AUDIO
    TITLE "0:"
    INDEX 01 01:02:18
  TRACK 48 AUDIO
    TITLE "8:cjc057_07358"
    INDEX 01 01:02:48
  TRACK 49 AUDIO
    TITLE "0:"
    INDEX 01 01:06:16
  TRACK 50 AUDIO
    TITLE "7:cjc057_07359"
    INDEX 01 01:07:23
  TRACK 51 AUDIO
    TITLE "0:"
    INDEX 01 01:08:36
  TRACK 52 AUDIO
    TITLE "8:cjc057_07360"
    INDEX 01 01:08:66
  TRACK 53 AUDIO
    TITLE "0:"
    INDEX 01 01:11:19
  TRACK 54 AUDIO
    TITLE "7:cjc057_07361"
    INDEX 01 01:12:24
  TRACK 55 AUDIO
    TITLE "0:"
    INDEX 01 01:13:47
  TRACK 56 AUDIO
    TITLE "8:cjc057_07362"
    INDEX 01 01:14:02
  TRACK 57 AUDIO
    TITLE "0:"
    INDEX 01 01:16:03
  TRACK 58 AUDIO
    TITLE "7:cjc057_07363"
    INDEX 01 01:17:10
  TRACK 59 AUDIO
    TITLE "0:"
    INDEX 01 01:18:43
  TRACK 60 AUDIO
    TITLE "8:cjc057_07364"
    INDEX 01 01:18:74
  TRACK 61 AUDIO
    TITLE "0:"
    INDEX 01 01:21:39
  TRACK 62 AUDIO
    TITLE "7:cjc057_07365"
    INDEX 01 01:22:44
  TRACK 63 AUDIO
    TITLE "0:"
    INDEX 01 01:23:73
  TRACK 64 AUDIO
    TITLE "8:cjc057_07366"
    INDEX 01 01:24:26
  TRACK 65 AUDIO
    TITLE "0:"
    INDEX 01 01:25:21
  TRACK 66 AUDIO
    TITLE "7:cjc057_07367"
    INDEX 01 01:26:27
  TRACK 67 AUDIO
    TITLE "0:"
    INDEX 01 01:27:57
  TRACK 68 AUDIO
    TITLE "8:cjc057_07368"
    INDEX 01 01:28:12
  TRACK 69 AUDIO
    TITLE "0:"
    INDEX 01 01:29:33
  TRACK 70 AUDIO
    TITLE "7:cjc057_07369"
    INDEX 01 01:30:38
  TRACK 71 AUDIO
    TITLE "0:"
    INDEX 01 01:31:67
  TRACK 72 AUDIO
    TITLE "8:cjc057_07370"
    INDEX 01 01:32:19
  TRACK 73 AUDIO
    TITLE "0:"
    INDEX 01 01:36:62
  TRACK 74 AUDIO
    TITLE "7:cjc057_07371"
    INDEX 01 01:37:66
  TRACK 75 AUDIO
    TITLE "0:"
    INDEX 01 01:39:10
  TRACK 76 AUDIO
    TITLE "8:cjc057_07372"
    INDEX 01 01:39:37
  TRACK 77 AUDIO
    TITLE "0:"
    INDEX 01 01:41:57
  TRACK 78 AUDIO
    TITLE "7:cjc057_07373"
    INDEX 01 01:42:59
  TRACK 79 AUDIO
    TITLE "0:"
    INDEX 01 01:44:01
  TRACK 80 AUDIO
    TITLE "8:cjc057_07374"
    INDEX 01 01:44:26
  TRACK 81 AUDIO
    TITLE "0:"
    INDEX 01 01:46:12
  TRACK 82 AUDIO
    TITLE "7:cjc057_07375"
    INDEX 01 01:47:17
  TRACK 83 AUDIO
    TITLE "0:"
    INDEX 01 01:48:40
  TRACK 84 AUDIO
    TITLE "8:cjc057_07376"
    INDEX 01 01:48:69
  TRACK 85 AUDIO
    TITLE "0:"
    INDEX 01 01:50:06
  TRACK 86 AUDIO
    TITLE "7:cjc057_07377"
    INDEX 01 01:51:11
  TRACK 87 AUDIO
    TITLE "0:"
    INDEX 01 01:52:24
  TRACK 88 AUDIO
    TITLE "8:cjc057_07378"
    INDEX 01 01:52:55
  TRACK 89 AUDIO
    TITLE "0:"
    INDEX 01 01:56:30
  TRACK 90 AUDIO
    TITLE "7:cjc057_07379"
    INDEX 01 01:57:37
  TRACK 91 AUDIO
    TITLE "0:"
    INDEX 01 01:58:52
  TRACK 92 AUDIO
    TITLE "8:cjc057_07380"
    INDEX 01 01:59:06
  TRACK 93 AUDIO
    TITLE "0:"
    INDEX 01 02:01:21
  TRACK 94 AUDIO
    TITLE "7:cjc057_07381"
    INDEX 01 02:02:26
  TRACK 95 AUDIO
    TITLE "0:"
    INDEX 01 02:03:61
  TRACK 96 AUDIO
    TITLE "8:cjc057_07382"
    INDEX 01 02:04:15
  TRACK 97 AUDIO
    TITLE "0:"
    INDEX 01 02:07:49
  TRACK 98 AUDIO
    TITLE "7:cjc057_07383"
    INDEX 01 02:08:54
  TRACK 99 AUDIO
    TITLE "0:"
    INDEX 01 02:10:06
  TRACK 100 AUDIO
    TITLE "8:cjc057_07384"
    INDEX 01 02:10:36
  TRACK 101 AUDIO
    TITLE "0:"
    INDEX 01 02:12:66
  TRACK 102 AUDIO
    TITLE "7:cjc057_07385"
    INDEX 01 02:13:73
  TRACK 103 AUDIO
    TITLE "0:"
    INDEX 01 02:15:13
  TRACK 104 AUDIO
    TITLE "8:cjc057_07386"
    INDEX 01 02:15:43
  TRACK 105 AUDIO
    TITLE "0:"
    INDEX 01 02:18:43
  TRACK 106 AUDIO
    TITLE "7:cjc057_07387"
    INDEX 01 02:19:46
  TRACK 107 AUDIO
    TITLE "0:"
    INDEX 01 02:20:67
  TRACK 108 AUDIO
    TITLE "8:cjc057_07388"
    INDEX 01 02:21:22
  TRACK 109 AUDIO
    TITLE "0:"
    INDEX 01 02:23:42
  TRACK 110 AUDIO
    TITLE "7:cjc057_07389"
    INDEX 01 02:24:46
  TRACK 111 AUDIO
    TITLE "0:"
    INDEX 01 02:25:68
  TRACK 112 AUDIO
    TITLE "8:cjc057_07390"
    INDEX 01 02:26:19
  TRACK 113 AUDIO
    TITLE "0:"
    INDEX 01 02:30:25
